# xmcd CD database file
# Copyright (C) 1993-1998 Ti Kan
#
# Track frame offsets:
#	150
#	15992
#	31687
#	47562
#	63275
#	78990
#	95160
#	109215
#	125212
#	140537
#	155672
#	170642
#	186402
#	201002
#	215490
#	228782
#	244517
#	258367
#	271495
#	286107
#	300507
#	314875
#	328897
#
# Disc length: 4569 seconds
#
# Revision: 0
# Processed by: cddbd v1.4b41PL1 Copyright (c) Steve Scherf et al.
# Submitted via: CDmax 1.5
#
DISCID=4e11d717
DTITLE=Ishman Bracey and Charlie Taylor - Complete Recorded Works In Chronologic
DTITLE=al Order (1928-1929)
DYEAR=1900
DGENRE=
TTITLE0=Stranger Blues (Rosie Mae Moore, vcl.)
TTITLE1=Saturday Blues
TTITLE2=Left Alone Blues
TTITLE3=Leavin' Town Blues (take 1)
TTITLE4=Leavin' Town Blues (take 2)
TTITLE5=Brown Mamma Blues (take 1)
TTITLE6=Brown Mamma Blues (take 2)
TTITLE7=Trouble Hearted Blues (take 1)
TTITLE8=Trouble Hearted Blues (take 2)
TTITLE9=The Four Day Blues (take 1)
TTITLE10=The Four Day Blues (take 2)
TTITLE11=Jake Liquor Blues
TTITLE12=Family Stirving
TTITLE13=Mobile Stomp (New Orleans Nehi Boys)
TTITLE14=Farish St. Rag (New Orleans Nehi Boys)
TTITLE15=Woman Woman Blues
TTITLE16=Suitcase Full Of Blues
TTITLE17=Bust Up Blues
TTITLE18=Pay Me No Mind
TTITLE19=Heavy Suitcase Blues
TTITLE20=Louisiana Bound
TTITLE21=Too Damp To Be Wet (Taylor and Bracey)
TTITLE22=Where My Shoes At? (Taylor and Bracey)
EXTD=
EXTT0=
EXTT1=
EXTT2=
EXTT3=
EXTT4=
EXTT5=
EXTT6=
EXTT7=
EXTT8=
EXTT9=
EXTT10=
EXTT11=
EXTT12=
EXTT13=
EXTT14=
EXTT15=
EXTT16=
EXTT17=
EXTT18=
EXTT19=
EXTT20=
EXTT21=
EXTT22=
PLAYORDER=
